<svg height="48" width="48" xmlns="http://www.w3.org/2000/svg" xmlns:xlink="http://www.w3.org/1999/xlink"><linearGradient id="a" gradientTransform="matrix(-.05358613 .102849 -.09281434 -.05937964 198.9051 -255.6893)" gradientUnits="userSpaceOnUse" x1="6.89429" x2="27.400387" xlink:href="#o" y1="-359.82382" y2="-381.30222"/><radialGradient id="b" cx="21.920311" cy="-382.96454" gradientTransform="matrix(.07065158 .04154803 -.06201499 .109408 207.4757 -189.8182)" gradientUnits="userSpaceOnUse" r="21.743534" xlink:href="#o"/><linearGradient id="c" gradientUnits="userSpaceOnUse" x1="284.80219" x2="288.89954" xlink:href="#o" y1="-441.23294" y2="-436.83109"/><linearGradient id="d" gradientUnits="userSpaceOnUse" x1="286.66589" x2="289.76562" xlink:href="#o" y1="-439.48358" y2="-436.70703"/><linearGradient id="e" gradientUnits="userSpaceOnUse" x1="240.94186" x2="244.97539" xlink:href="#o" y1="-230.10491" y2="-224.91823"/><linearGradient id="f" gradientUnits="userSpaceOnUse" x1="285.94086" x2="289.39124" xlink:href="#o" y1="-439.939" y2="-436.4429"/><linearGradient id="g" gradientUnits="userSpaceOnUse" x1="286.51172" x2="289.85379" xlink:href="#o" y1="-441.29074" y2="-436.14453"/><linearGradient id="h" gradientUnits="userSpaceOnUse" x1="287.5173" x2="289.67633" xlink:href="#o" y1="-439.75281" y2="-436.32199"/><linearGradient id="i" gradientUnits="userSpaceOnUse" x1="237.02163" x2="251.02852" xlink:href="#o" y1="-234.05172" y2="-224.96981"/><linearGradient id="j" gradientUnits="userSpaceOnUse" x1="238.00478" x2="245.65462" xlink:href="#o" y1="-388.47476" y2="-382.64539"/><linearGradient id="k" gradientUnits="userSpaceOnUse" x1="230.87598" x2="235.25652" xlink:href="#o" y1="-390.43951" y2="-386.95901"/><linearGradient id="l" gradientUnits="userSpaceOnUse" x1="246.74042" x2="252.69785" xlink:href="#o" y1="-391.31381" y2="-385.35165"/><linearGradient id="m" gradientUnits="userSpaceOnUse" x1="240.07379" x2="245.82706" xlink:href="#o" y1="-393.4072" y2="-388.55029"/><linearGradient id="n" gradientUnits="userSpaceOnUse" x1="297.50261" x2="335.36395" xlink:href="#o" y1="-237.30591" y2="-224.26862"/><linearGradient id="o"><stop offset="0" stop-color="#fff"/><stop offset="1" stop-color="#fff" stop-opacity="0"/></linearGradient><g transform="translate(-202.9549 271.0066)"><path d="m231.62587-228.77086c-1.03925-.59579-1.39572-1.91688-.79571-2.94881 1.3315-2.08276 3.10508-1.54617 4.01215-3.74171 1.26092 1.33361.79314 8.24771-3.21644 6.69052z" fill="#729fcf" stroke="#204a87" stroke-miterlimit="2" stroke-width="1.074569"/><path d="m234.31017-229.9035c-.48958.86374-1.57515 1.16002-2.42314.66134-.848-.49868-1.13887-1.60441-.64929-2.46815.48959-.86374 2.606-.45204 3.34614-2.28969.84799.49867.21588 3.23276-.27371 4.0965z" fill="url(#b)" opacity=".461111"/><path d="m233.02237-229c-4.61461-1.07384.23748-4.71939.97763-3.92154-3.5824 1.37036-.97763 3.92154-.97763 3.92154z" fill="url(#a)"/></g><g transform="matrix(.999675 0 0 1 -286.8482 245.0001)"><path d="m311.5-242.99998c-2.77242 0-5.10823 1.57371-6.40625 3.8125-.94436-.47504-1.96519-.8125-3.09375-.8125-3.864 0-7 3.136-7 7s3.136 7 7 7c2.41967 0 4.43009-1.31932 5.6875-3.1875 1.1342.68962 2.38898 1.1875 3.8125 1.1875.91312 0 1.75295-.23202 2.5625-.53125.50994.86773 1.17912 1.57972 2 2.15625-.00724.13038-.0625.24282-.0625.375 0 3.864 3.13599 7 7 7 3.864 0 7-3.136 7-7 0-2.36969-1.25898-4.35834-3.0625-5.625.00724-.13038.0625-.24282.0625-.375 0-3.864-3.13599-7-7-7-.6227 0-1.17519.22219-1.75.375-1.19453-2.55884-3.74134-4.375-6.75-4.375z" fill="#555753"/><path d="m311.5-241.99998c-2.78048 0-5.13451 1.76185-6.0625 4.21875-.98542-.70944-2.13143-1.21875-3.4375-1.21875-3.312 0-6 2.688-6 6s2.688 6 6 6c2.42775 0 4.49324-1.45558 5.4375-3.53125 1.12076.91756 2.50214 1.53125 4.0625 1.53125 1.07454 0 2.04428-.31896 2.9375-.78125.3984.99976 1.10114 1.78632 1.9375 2.4375-.18001.59562-.375 1.18965-.375 1.84375 0 3.588 2.912 6.5 6.5 6.5s6.5-2.912 6.5-6.5c0-2.36079-1.33433-4.33019-3.21875-5.46875.06259-.34723.21875-.66608.21875-1.03125 0-3.312-2.688-6-6-6-.85298 0-1.6713.17868-2.40625.5-.85377-2.59388-3.21524-4.49999-6.09375-4.5z" fill="url(#n)"/><path d="m248.54804-383.6666a6.7396116 6.7396116 0 1 1 -13.47923 0 6.7396116 6.7396116 0 1 1 13.47923 0z" fill="#888a85" transform="matrix(.964447 0 0 .964447 89.28852 144.5262)"/><path d="m250.18322-389.30136a6.2313786 6.2313786 0 1 1 -12.46276 0 6.2313786 6.2313786 0 1 1 12.46276 0z" fill="#888a85" transform="matrix(.88263 0 0 .88263 96.18078 108.1091)"/><path d="m250.18322-389.30136a6.2313786 6.2313786 0 1 1 -12.46276 0 6.2313786 6.2313786 0 1 1 12.46276 0z" fill="url(#m)" opacity=".494444" transform="matrix(.88263 0 0 .88263 96.18078 108.1091)"/><path d="m257.25429-385.7879a6.0325046 6.0325046 0 1 1 -12.06501 0 6.0325046 6.0325046 0 1 1 12.06501 0z" fill="#888a85" transform="matrix(.911728 0 0 .911728 90.45407 120.2336)"/><path d="m257.25429-385.7879a6.0325046 6.0325046 0 1 1 -12.06501 0 6.0325046 6.0325046 0 1 1 12.06501 0z" fill="url(#l)" opacity=".494444" transform="matrix(.911728 0 0 .911728 90.45407 120.2336)"/><path d="m237.80885-387.88715a4.3752232 4.3752232 0 1 1 -8.75045 0 4.3752232 4.3752232 0 1 1 8.75045 0z" fill="#888a85" transform="matrix(1.142799 0 0 1.142799 35.23229 210.277)"/><path d="m237.80885-387.88715a4.3752232 4.3752232 0 1 1 -8.75045 0 4.3752232 4.3752232 0 1 1 8.75045 0z" fill="url(#k)" opacity=".494444" transform="matrix(1.142799 0 0 1.142799 35.23229 210.277)"/><path d="m248.54804-383.6666a6.7396116 6.7396116 0 1 1 -13.47923 0 6.7396116 6.7396116 0 1 1 13.47923 0z" fill="#888a85" transform="matrix(1.038636 0 0 1.038636 59.84906 169.4899)"/><path d="m248.54804-383.6666a6.7396116 6.7396116 0 1 1 -13.47923 0 6.7396116 6.7396116 0 1 1 13.47923 0z" fill="url(#j)" opacity=".494444" transform="matrix(1.038636 0 0 1.038636 59.84907 169.4899)"/><g transform="translate(72.00007 7.99993)"><path d="m246.49993-238.49993c-2.27083 0-4.10991 1.55028-4.71875 3.625-.69323-.36383-1.44451-.625-2.28125-.625-2.76 0-5.00001 2.23999-5 5 0 .57893.16252 1.1077.34375 1.625-1.37347.77074-2.34375 2.189-2.34375 3.875 0 2.484 2.016 4.50001 4.5 4.5h19c2.48399 0 4.5-2.016 4.5-4.5 0-1.686-.97028-3.10426-2.34375-3.875.18124-.51729.34375-1.04608.34375-1.625 0-2.76-2.24-4.99999-5-5-.83674 0-1.58802.26117-2.28125.625-.60884-2.07472-2.44792-3.625-4.71875-3.625z" fill="#888a85" stroke="#555753" stroke-miterlimit="2" stroke-width="1.000163"/><path d="m246.49993-237.99993c-2.18972 0-3.7236 1.33577-4.39555 3.84352-.66846-.34362-1.54759-.83335-2.35445-.83335-2.71651 0-4.75514 1.93882-4.75513 4.54554 0 .54677.26721 1.33344.44196 1.82201-1.32443.72795-2.43683 1.8905-2.43683 3.37255 0 2.34605 1.54617 4.25009 4.33928 4.25009h18.32144c2.77101 0 4.33928-1.90404 4.33928-4.25009 0-1.59237-1.1124-2.66669-2.43683-3.39464.17476-.48856.46407-1.25316.46407-1.79992 0-2.60671-2.11581-4.56763-4.77723-4.56764-.80687 0-1.64181.48974-2.31027.83336-.64885-2.42154-2.25001-3.82143-4.43974-3.82143z" fill="url(#i)"/><path d="m291.6875-437.59375a3.3125 3.3125 0 1 1 -6.625 0 3.3125 3.3125 0 1 1 6.625 0z" fill="#888a85" transform="matrix(1.056604 0 0 1.056604 -58.19825 228.8634)"/><path d="m291.6875-437.59375a3.3125 3.3125 0 1 1 -6.625 0 3.3125 3.3125 0 1 1 6.625 0z" fill="url(#h)" opacity=".477778" transform="matrix(1.056604 0 0 1.056604 -58.19825 228.8634)"/><g fill="#888a85"><path d="m236.99994-230.99992h20v9h-20z"/><path d="m291.6875-437.59375a3.3125 3.3125 0 1 1 -6.625 0 3.3125 3.3125 0 1 1 6.625 0z" transform="matrix(.90566 0 0 .90566 -24.16987 171.3114)"/><path d="m291.6875-437.59375a3.3125 3.3125 0 1 1 -6.625 0 3.3125 3.3125 0 1 1 6.625 0z" transform="matrix(1.056604 0 0 1.056604 -51.19818 231.8633)"/></g><path d="m291.6875-437.59375a3.3125 3.3125 0 1 1 -6.625 0 3.3125 3.3125 0 1 1 6.625 0z" fill="url(#g)" opacity=".477778" transform="matrix(1.056604 0 0 1.056604 -51.19825 231.8634)"/><path d="m291.6875-437.59375a3.3125 3.3125 0 1 1 -6.625 0 3.3125 3.3125 0 1 1 6.625 0z" fill="#888a85" transform="matrix(1.056604 0 0 1.056604 -65.19825 231.8634)"/><path d="m291.6875-437.59375a3.3125 3.3125 0 1 1 -6.625 0 3.3125 3.3125 0 1 1 6.625 0z" fill="url(#f)" opacity=".477778" transform="matrix(1.056604 0 0 1.056604 -65.19825 231.8634)"/><path d="m245.46868-233.96868c-3.57938 0-6.46875 2.92063-6.46875 6.5 0 2.37068 1.34943 4.33779 3.25 5.46875h6.46875c1.90057-1.13096 3.25-3.12931 3.25-5.5 0-3.57938-2.92063-6.46875-6.5-6.46875z" fill="#888a85"/><path d="m245.49993-233.99993c-3.588 0-6.5 2.91201-6.5 6.5 0 2.3764 1.34485 4.36632 3.25 5.5h6.5c1.90515-1.13368 3.25-3.1236 3.25-5.5 0-3.588-2.912-6.49999-6.5-6.5z" fill="url(#e)" opacity=".477778"/><path d="m291.6875-437.59375a3.3125 3.3125 0 1 1 -6.625 0 3.3125 3.3125 0 1 1 6.625 0z" fill="url(#d)" opacity=".477778" transform="matrix(.90566 0 0 .90566 -24.16977 171.3113)"/><path d="m258.95633-230.33389c-.00153 2.68456-3.26926 3.71395-3.26926 3.71395s2.34874-1.62595 2.33685-3.70501c0 0 .93241-.00894.93241-.00894z" fill="#555753" fill-rule="evenodd"/><path d="m291.6875-437.59375a3.3125 3.3125 0 1 1 -6.625 0 3.3125 3.3125 0 1 1 6.625 0z" fill="#888a85" transform="matrix(1.207547 0 0 1.207547 -98.22652 302.4154)"/><path d="m291.6875-437.59375a3.3125 3.3125 0 1 1 -6.625 0 3.3125 3.3125 0 1 1 6.625 0z" fill="url(#c)" opacity=".477778" transform="matrix(1.207547 0 0 1.207547 -98.22652 302.4154)"/></g><g transform="translate(56.98577 3.98393)"><path d="m246.49993-238.49993c-2.27083 0-4.10991 1.55028-4.71875 3.625-.69323-.36383-1.44451-.625-2.28125-.625-2.76 0-5.00001 2.23999-5 5 0 .57893.16252 1.1077.34375 1.625-1.37347.77074-2.34375 2.189-2.34375 3.875 0 2.484 2.016 4.50001 4.5 4.5h19c2.48399 0 4.5-2.016 4.5-4.5 0-1.686-.97028-3.10426-2.34375-3.875.18124-.51729.34375-1.04608.34375-1.625 0-2.76-2.24-4.99999-5-5-.83674 0-1.58802.26117-2.28125.625-.60884-2.07472-2.44792-3.625-4.71875-3.625z" fill="#888a85" stroke="#555753" stroke-miterlimit="2" stroke-width="1.000163"/><path d="m246.49993-237.99993c-2.18972 0-3.7236 1.33577-4.39555 3.84352-.66846-.34362-1.54759-.83335-2.35445-.83335-2.71651 0-4.75514 1.93882-4.75513 4.54554 0 .54677.26721 1.33344.44196 1.82201-1.32443.72795-2.43683 1.8905-2.43683 3.37255 0 2.34605 1.54617 4.25009 4.33928 4.25009h18.32144c2.77101 0 4.33928-1.90404 4.33928-4.25009 0-1.59237-1.1124-2.66669-2.43683-3.39464.17476-.48856.46407-1.25316.46407-1.79992 0-2.60671-2.11581-4.56763-4.77723-4.56764-.80687 0-1.64181.48974-2.31027.83336-.64885-2.42154-2.25001-3.82143-4.43974-3.82143z" fill="url(#i)"/><path d="m291.6875-437.59375a3.3125 3.3125 0 1 1 -6.625 0 3.3125 3.3125 0 1 1 6.625 0z" fill="#888a85" transform="matrix(1.056604 0 0 1.056604 -58.19825 228.8634)"/><path d="m291.6875-437.59375a3.3125 3.3125 0 1 1 -6.625 0 3.3125 3.3125 0 1 1 6.625 0z" fill="url(#h)" opacity=".477778" transform="matrix(1.056604 0 0 1.056604 -58.19825 228.8634)"/><g fill="#888a85"><path d="m236.99994-230.99992h20v9h-20z"/><path d="m291.6875-437.59375a3.3125 3.3125 0 1 1 -6.625 0 3.3125 3.3125 0 1 1 6.625 0z" transform="matrix(.90566 0 0 .90566 -24.16987 171.3114)"/><path d="m291.6875-437.59375a3.3125 3.3125 0 1 1 -6.625 0 3.3125 3.3125 0 1 1 6.625 0z" transform="matrix(1.056604 0 0 1.056604 -51.19818 231.8633)"/></g><path d="m291.6875-437.59375a3.3125 3.3125 0 1 1 -6.625 0 3.3125 3.3125 0 1 1 6.625 0z" fill="url(#g)" opacity=".477778" transform="matrix(1.056604 0 0 1.056604 -51.19825 231.8634)"/><path d="m291.6875-437.59375a3.3125 3.3125 0 1 1 -6.625 0 3.3125 3.3125 0 1 1 6.625 0z" fill="#888a85" transform="matrix(1.056604 0 0 1.056604 -65.19825 231.8634)"/><path d="m291.6875-437.59375a3.3125 3.3125 0 1 1 -6.625 0 3.3125 3.3125 0 1 1 6.625 0z" fill="url(#f)" opacity=".477778" transform="matrix(1.056604 0 0 1.056604 -65.19825 231.8634)"/><path d="m245.46868-233.96868c-3.57938 0-6.46875 2.92063-6.46875 6.5 0 2.37068 1.34943 4.33779 3.25 5.46875h6.46875c1.90057-1.13096 3.25-3.12931 3.25-5.5 0-3.57938-2.92063-6.46875-6.5-6.46875z" fill="#888a85"/><path d="m245.49993-233.99993c-3.588 0-6.5 2.91201-6.5 6.5 0 2.3764 1.34485 4.36632 3.25 5.5h6.5c1.90515-1.13368 3.25-3.1236 3.25-5.5 0-3.588-2.912-6.49999-6.5-6.5z" fill="url(#e)" opacity=".477778"/><path d="m291.6875-437.59375a3.3125 3.3125 0 1 1 -6.625 0 3.3125 3.3125 0 1 1 6.625 0z" fill="url(#d)" opacity=".477778" transform="matrix(.90566 0 0 .90566 -24.16977 171.3113)"/><path d="m258.95633-230.33389c-.00153 2.68456-3.26926 3.71395-3.26926 3.71395s2.34874-1.62595 2.33685-3.70501c0 0 .93241-.00894.93241-.00894z" fill="#555753" fill-rule="evenodd"/><path d="m291.6875-437.59375a3.3125 3.3125 0 1 1 -6.625 0 3.3125 3.3125 0 1 1 6.625 0z" fill="#888a85" transform="matrix(1.207547 0 0 1.207547 -98.22652 302.4154)"/><path d="m291.6875-437.59375a3.3125 3.3125 0 1 1 -6.625 0 3.3125 3.3125 0 1 1 6.625 0z" fill="url(#c)" opacity=".477778" transform="matrix(1.207547 0 0 1.207547 -98.22652 302.4154)"/></g></g><g transform="translate(-222.9549 261.0144)"><path d="m231.62587-228.77086c-1.03925-.59579-1.39572-1.91688-.79571-2.94881 1.3315-2.08276 3.10508-1.54617 4.01215-3.74171 1.26092 1.33361.79314 8.24771-3.21644 6.69052z" fill="#729fcf" stroke="#204a87" stroke-miterlimit="2" stroke-width="1.074569"/><path d="m234.31017-229.9035c-.48958.86374-1.57515 1.16002-2.42314.66134-.848-.49868-1.13887-1.60441-.64929-2.46815.48959-.86374 2.606-.45204 3.34614-2.28969.84799.49867.21588 3.23276-.27371 4.0965z" fill="url(#b)" opacity=".461111"/><path d="m233.02237-229c-4.61461-1.07384.23748-4.71939.97763-3.92154-3.5824 1.37036-.97763 3.92154-.97763 3.92154z" fill="url(#a)"/></g><g transform="translate(-193.9565 268.0066)"><path d="m231.62587-228.77086c-1.03925-.59579-1.39572-1.91688-.79571-2.94881 1.3315-2.08276 3.10508-1.54617 4.01215-3.74171 1.26092 1.33361.79314 8.24771-3.21644 6.69052z" fill="#729fcf" stroke="#204a87" stroke-miterlimit="2" stroke-width="1.074569"/><path d="m234.31017-229.9035c-.48958.86374-1.57515 1.16002-2.42314.66134-.848-.49868-1.13887-1.60441-.64929-2.46815.48959-.86374 2.606-.45204 3.34614-2.28969.84799.49867.21588 3.23276-.27371 4.0965z" fill="url(#b)" opacity=".461111"/><path d="m233.02237-229c-4.61461-1.07384.23748-4.71939.97763-3.92154-3.5824 1.37036-.97763 3.92154-.97763 3.92154z" fill="url(#a)"/></g><g transform="translate(-224.955 271.0079)"><path d="m231.62587-228.77086c-1.03925-.59579-1.39572-1.91688-.79571-2.94881 1.3315-2.08276 3.10508-1.54617 4.01215-3.74171 1.26092 1.33361.79314 8.24771-3.21644 6.69052z" fill="#729fcf" stroke="#204a87" stroke-miterlimit="2" stroke-width="1.074569"/><path d="m234.31017-229.9035c-.48958.86374-1.57515 1.16002-2.42314.66134-.848-.49868-1.13887-1.60441-.64929-2.46815.48959-.86374 2.606-.45204 3.34614-2.28969.84799.49867.21588 3.23276-.27371 4.0965z" fill="url(#b)" opacity=".461111"/><path d="m233.02237-229c-4.61461-1.07384.23748-4.71939.97763-3.92154-3.5824 1.37036-.97763 3.92154-.97763 3.92154z" fill="url(#a)"/></g><g transform="translate(-214.9565 266.0066)"><path d="m231.62587-228.77086c-1.03925-.59579-1.39572-1.91688-.79571-2.94881 1.3315-2.08276 3.10508-1.54617 4.01215-3.74171 1.26092 1.33361.79314 8.24771-3.21644 6.69052z" fill="#729fcf" stroke="#204a87" stroke-miterlimit="2" stroke-width="1.074569"/><path d="m234.31017-229.9035c-.48958.86374-1.57515 1.16002-2.42314.66134-.848-.49868-1.13887-1.60441-.64929-2.46815.48959-.86374 2.606-.45204 3.34614-2.28969.84799.49867.21588 3.23276-.27371 4.0965z" fill="url(#b)" opacity=".461111"/><path d="m233.02237-229c-4.61461-1.07384.23748-4.71939.97763-3.92154-3.5824 1.37036-.97763 3.92154-.97763 3.92154z" fill="url(#a)"/></g><g transform="translate(-200.9565 261.0144)"><path d="m231.62587-228.77086c-1.03925-.59579-1.39572-1.91688-.79571-2.94881 1.3315-2.08276 3.10508-1.54617 4.01215-3.74171 1.26092 1.33361.79314 8.24771-3.21644 6.69052z" fill="#729fcf" stroke="#204a87" stroke-miterlimit="2" stroke-width="1.074569"/><path d="m234.31017-229.9035c-.48958.86374-1.57515 1.16002-2.42314.66134-.848-.49868-1.13887-1.60441-.64929-2.46815.48959-.86374 2.606-.45204 3.34614-2.28969.84799.49867.21588 3.23276-.27371 4.0965z" fill="url(#b)" opacity=".461111"/><path d="m233.02237-229c-4.61461-1.07384.23748-4.71939.97763-3.92154-3.5824 1.37036-.97763 3.92154-.97763 3.92154z" fill="url(#a)"/></g></svg>